<svg id="svg" version="1.1" width="400" height="300" xmlns="http://www.w3.org/2000/svg" xmlns:xlink="http://www.w3.org/1999/xlink" style="display: block;"><g id="svgg"><path id="path0" d="M62.116 14.522 C 62.116 15.007,62.509 15.143,64.816 15.452 C 68.152 15.899,68.117 15.695,68.117 34.891 C 68.117 54.391,68.259 53.717,64.040 54.245 C 62.706 54.411,62.249 54.594,62.173 54.990 C 62.078 55.481,62.747 55.514,72.746 55.514 C 82.975 55.514,83.421 55.490,83.421 54.952 C 83.421 54.489,83.106 54.355,81.607 54.186 C 77.922 53.769,77.432 52.428,77.430 42.761 C 77.428 36.607,77.449 36.535,79.200 36.665 L 80.471 36.759 87.138 46.062 L 93.805 55.364 100.316 55.445 C 105.548 55.510,106.827 55.448,106.827 55.130 C 106.827 54.571,106.202 54.014,105.577 54.014 C 104.330 54.014,90.991 36.680,91.723 36.010 C 91.860 35.884,92.513 35.610,93.173 35.401 C 103.782 32.040,102.689 17.750,91.597 14.789 C 88.941 14.080,62.116 13.837,62.116 14.522 M321.134 14.609 C 321.196 14.933,321.760 15.250,322.701 15.490 C 325.152 16.115,325.564 17.558,325.576 25.564 C 325.582 29.393,325.429 29.775,324.350 28.619 C 321.996 26.099,317.397 25.407,313.878 27.043 C 304.261 31.514,303.782 50.710,313.173 55.355 C 316.891 57.194,320.667 56.574,323.695 53.628 C 325.440 51.929,325.517 51.969,325.649 54.646 L 325.731 56.328 331.573 55.156 C 334.786 54.511,337.469 53.929,337.536 53.861 C 337.899 53.499,337.178 52.821,336.246 52.646 C 333.881 52.202,333.983 53.115,333.983 32.437 L 333.983 14.104 327.510 14.104 C 321.601 14.104,321.045 14.148,321.134 14.609 M85.585 17.099 C 89.103 18.418,90.173 20.344,90.173 25.356 C 90.173 31.969,88.045 33.986,81.020 34.035 L 77.569 34.059 77.490 25.660 C 77.446 21.042,77.475 17.092,77.555 16.883 C 77.808 16.224,83.670 16.381,85.585 17.099 M266.511 18.864 C 264.646 21.735,261.531 25.113,258.864 27.157 C 255.918 29.415,255.880 30.008,258.682 30.008 L 260.465 30.008 260.467 39.085 C 260.468 44.077,260.601 48.972,260.763 49.962 C 261.868 56.714,271.066 58.034,274.864 51.985 C 276.463 49.439,275.706 48.754,273.610 50.850 C 272.053 52.407,270.850 52.644,269.889 51.582 C 269.354 50.990,269.312 50.288,269.231 40.479 L 269.145 30.008 272.457 30.008 L 275.769 30.008 275.769 28.507 L 275.769 27.007 272.475 27.007 L 269.181 27.007 269.099 21.834 C 268.999 15.502,268.825 15.303,266.511 18.864 M117.696 26.680 C 114.710 27.788,111.811 30.296,110.462 32.940 C 107.618 38.516,108.086 47.355,111.469 51.963 C 115.133 56.952,123.537 57.839,128.215 53.732 C 130.345 51.862,132.815 48.013,132.248 47.447 C 131.686 46.885,131.325 47.078,130.280 48.498 C 125.873 54.486,118.474 51.377,116.982 42.912 C 116.476 40.040,115.940 40.231,124.745 40.140 L 132.483 40.060 132.404 38.560 C 131.941 29.723,124.877 24.017,117.696 26.680 M146.741 26.566 C 134.855 30.268,132.255 49.554,142.859 55.353 C 146.070 57.109,150.775 56.479,153.864 53.880 C 154.365 53.458,154.857 53.113,154.957 53.113 C 155.302 53.113,155.154 65.355,154.800 66.132 C 154.451 66.897,153.632 67.332,151.896 67.676 C 151.190 67.816,150.932 68.015,151.000 68.370 C 151.086 68.816,151.936 68.875,159.290 68.947 L 167.485 69.027 167.388 68.347 C 167.316 67.838,167.065 67.644,166.392 67.577 C 163.603 67.299,163.546 66.836,163.543 44.336 C 163.541 23.512,163.852 25.244,160.540 27.607 C 158.045 29.387,158.103 29.380,156.611 28.102 C 154.428 26.234,150.014 25.547,146.741 26.566 M214.952 26.669 C 202.127 31.431,202.775 54.041,215.798 56.145 C 221.507 57.068,226.392 54.417,229.227 48.857 C 230.302 46.749,228.910 46.642,227.290 48.709 C 222.824 54.406,215.980 51.408,214.259 43.001 C 213.652 40.037,213.127 40.232,221.969 40.140 L 229.707 40.060 229.621 38.560 C 229.109 29.650,222.139 24.001,214.952 26.669 M239.069 26.626 C 233.487 28.681,232.048 36.512,236.425 41.019 C 236.998 41.609,239.269 43.426,241.472 45.057 C 246.413 48.715,247.425 50.226,246.318 52.295 C 244.408 55.863,238.683 53.442,236.179 48.009 C 235.312 46.128,234.655 45.489,234.255 46.137 C 234.178 46.260,234.204 48.521,234.312 51.159 C 234.532 56.532,234.710 56.882,236.465 55.405 L 237.362 54.650 239.536 55.420 C 247.110 58.100,253.100 54.434,253.109 47.112 C 253.115 42.708,251.988 41.075,246.119 36.991 C 240.364 32.985,239.222 31.350,240.837 29.430 C 243.083 26.761,247.887 29.507,250.163 34.759 C 250.922 36.513,251.763 36.484,251.763 34.706 C 251.763 27.056,251.256 25.161,249.662 26.857 C 248.798 27.777,248.203 27.795,246.575 26.955 C 244.828 26.054,241.072 25.889,239.069 26.626 M287.793 26.697 C 276.134 31.015,275.367 51.788,286.722 55.718 C 292.199 57.614,297.689 55.582,301.148 50.379 C 303.243 47.227,302.457 45.827,300.208 48.705 C 295.728 54.438,288.818 51.401,287.159 42.969 C 286.579 40.021,286.053 40.210,294.857 40.210 L 302.561 40.210 302.396 37.884 C 301.794 29.393,294.858 24.080,287.793 26.697 M170.743 27.472 C 170.743 27.728,171.192 28.125,171.742 28.355 C 173.630 29.144,173.577 28.834,173.774 40.181 C 173.930 49.124,174.027 50.729,174.477 51.763 C 176.775 57.041,183.281 57.882,188.125 53.526 C 189.958 51.879,189.947 51.877,189.947 53.870 L 189.947 55.527 195.699 55.445 C 201.973 55.356,202.831 55.099,200.368 54.043 C 198.495 53.240,198.555 53.680,198.416 39.685 L 198.290 27.007 192.619 27.007 C 187.225 27.007,186.947 27.035,186.947 27.583 C 186.947 27.981,187.229 28.221,187.857 28.359 C 189.718 28.768,189.788 29.149,189.884 39.296 L 189.971 48.462 188.591 50.031 C 186.963 51.883,185.419 52.523,184.000 51.936 C 182.406 51.275,182.359 50.923,182.211 38.485 L 182.074 27.007 176.408 27.007 C 171.489 27.007,170.743 27.068,170.743 27.472 M122.374 28.628 C 123.926 29.431,124.626 31.252,124.775 34.882 L 124.909 38.127 120.744 38.043 L 116.579 37.959 116.471 37.209 C 115.779 32.387,119.417 27.099,122.374 28.628 M152.270 28.669 C 154.784 29.862,155.139 31.470,155.139 41.679 L 155.139 49.784 154.055 50.836 C 149.399 55.358,145.769 52.192,145.332 43.226 C 144.827 32.858,147.828 26.561,152.270 28.669 M220.180 28.868 C 221.234 29.738,221.987 32.190,222.098 35.118 L 222.206 37.959 218.155 37.959 L 214.104 37.959 214.015 36.103 C 213.757 30.727,217.340 26.523,220.180 28.868 M293.397 29.323 C 294.400 30.565,294.933 32.553,295.027 35.409 L 295.110 37.959 291.516 38.046 C 286.038 38.179,286.013 38.155,287.039 33.732 C 288.205 28.704,291.213 26.618,293.397 29.323 M322.123 29.793 C 322.779 30.164,323.826 31.198,324.449 32.090 L 325.581 33.711 325.581 40.910 L 325.581 48.109 324.638 49.580 C 322.116 53.510,317.634 53.472,316.678 49.512 C 316.578 49.100,316.346 48.573,316.163 48.341 C 315.447 47.439,315.729 33.672,316.497 32.026 C 317.847 29.128,319.671 28.404,322.123 29.793 M127.832 88.402 C 122.785 90.245,123.838 97.527,129.152 97.523 C 133.834 97.520,135.752 91.771,131.969 89.077 C 131.073 88.439,128.763 88.062,127.832 88.402 M157.539 101.388 C 155.967 101.905,154.345 102.919,153.202 104.101 C 151.669 105.685,151.538 105.651,151.538 103.676 L 151.538 102.026 145.686 102.026 C 139.362 102.026,138.341 102.333,141.059 103.420 C 142.822 104.126,142.836 104.227,142.836 116.408 C 142.836 128.361,142.742 129.032,141.073 129.032 C 140.461 129.032,139.835 129.593,139.835 130.143 C 139.835 130.452,141.355 130.533,147.187 130.533 C 154.240 130.533,154.539 130.509,154.539 129.956 C 154.539 129.560,154.201 129.267,153.459 129.023 C 151.632 128.420,151.538 127.869,151.538 117.783 L 151.538 108.914 153.113 107.295 C 155.439 104.904,157.615 104.691,158.949 106.724 C 159.435 107.465,159.500 108.494,159.587 116.865 C 159.700 127.624,159.626 128.130,157.833 128.921 C 157.076 129.255,156.639 129.646,156.639 129.990 C 156.639 130.499,157.100 130.533,163.991 130.533 C 170.035 130.533,171.343 130.459,171.343 130.119 C 171.343 129.612,170.783 129.133,170.024 128.990 C 168.043 128.616,166.900 111.296,168.668 108.436 C 170.005 106.272,172.922 104.856,174.532 105.589 C 176.012 106.264,176.144 107.221,176.144 117.275 C 176.144 127.748,176.081 128.152,174.318 128.930 C 173.576 129.257,173.143 129.648,173.143 129.990 C 173.143 130.499,173.604 130.533,180.495 130.533 C 186.327 130.533,187.847 130.452,187.847 130.143 C 187.847 129.602,187.225 129.032,186.633 129.032 C 184.963 129.032,184.553 126.409,184.544 115.679 C 184.539 108.849,184.450 107.024,184.068 105.926 C 182.045 100.099,174.947 99.403,169.384 104.485 C 168.264 105.509,167.596 105.937,167.512 105.685 C 166.457 102.529,161.096 100.219,157.539 101.388 M202.701 101.302 C 198.877 102.213,197.142 102.992,195.367 104.595 C 191.753 107.860,192.454 112.657,196.637 113.285 C 200.672 113.890,202.829 110.544,200.497 107.297 C 198.925 105.108,199.841 103.823,203.146 103.584 C 204.918 103.456,204.971 103.475,206.151 104.655 L 207.352 105.856 207.352 109.196 L 207.352 112.536 205.626 113.296 C 196.142 117.475,191.925 121.474,192.416 125.826 C 193.061 131.548,199.201 132.477,205.463 127.799 C 207.382 126.366,207.218 126.354,207.986 127.987 C 209.123 130.407,211.914 131.411,215.104 130.548 C 216.428 130.189,219.655 127.447,219.655 126.680 C 219.655 126.056,218.762 125.932,218.165 126.472 C 217.450 127.119,216.410 126.834,216.209 125.936 C 216.128 125.576,216.026 121.230,215.982 116.279 C 215.884 105.206,215.575 104.265,211.348 102.183 C 209.629 101.336,204.677 100.831,202.701 101.302 M231.959 101.329 C 221.684 103.493,219.959 117.434,229.587 120.490 C 230.419 120.754,230.288 121.149,229.182 121.710 C 223.776 124.455,222.360 130.652,226.571 133.140 C 227.730 133.824,227.712 133.871,225.972 134.697 C 220.788 137.158,222.477 141.595,229.257 143.331 C 239.687 146.001,250.173 142.115,250.779 135.356 C 251.299 129.572,248.159 127.507,238.560 127.320 C 230.646 127.166,229.857 126.919,229.857 124.602 C 229.857 122.501,231.074 121.830,234.881 121.830 C 245.311 121.830,251.660 113.753,246.523 107.019 C 245.462 105.627,245.463 105.626,248.328 105.626 L 250.894 105.626 250.803 104.051 L 250.713 102.476 245.461 102.324 C 241.723 102.216,239.994 102.049,239.460 101.747 C 238.691 101.311,233.432 101.018,231.959 101.329 M263.487 101.715 C 256.228 104.404,252.426 113.892,255.160 122.499 C 258.633 133.435,271.891 134.673,277.371 124.572 C 278.778 121.979,277.833 121.184,276.116 123.517 C 271.349 129.995,262.619 125.189,262.570 116.059 L 262.566 115.239 270.443 115.159 L 278.320 115.079 278.218 113.428 C 277.677 104.596,270.696 99.045,263.487 101.715 M121.583 102.524 C 121.637 102.798,122.115 103.170,122.646 103.349 C 124.763 104.066,124.673 103.526,124.757 115.914 C 124.843 128.461,124.867 128.304,122.798 129.023 C 121.941 129.321,121.530 129.639,121.530 130.003 C 121.530 130.511,121.991 130.538,129.257 130.463 C 135.814 130.395,136.984 130.316,136.984 129.942 C 136.984 129.690,136.506 129.368,135.865 129.188 C 133.568 128.543,133.693 129.332,133.599 114.918 L 133.515 102.026 127.501 102.026 C 122.056 102.026,121.496 102.073,121.583 102.524 M238.100 104.206 C 240.156 106.262,240.693 114.658,238.982 117.981 C 237.471 120.914,233.908 120.575,232.491 117.364 C 231.742 115.665,231.584 108.709,232.249 106.677 C 233.365 103.263,236.031 102.138,238.100 104.206 M268.210 103.647 C 269.569 104.349,270.326 106.115,270.724 109.513 C 271.170 113.309,271.366 113.151,266.317 113.053 L 262.416 112.978 262.519 110.737 C 262.766 105.415,265.365 102.175,268.210 103.647 M207.352 119.383 C 207.352 124.349,207.347 124.362,205.134 125.287 C 201.517 126.798,199.446 122.746,202.034 119.221 C 203.388 117.376,206.245 114.974,207.127 114.938 C 207.251 114.933,207.352 116.933,207.352 119.383 M244.054 135.479 C 250.840 138.315,240.306 143.463,232.007 141.367 C 227.716 140.284,227.079 135.529,231.145 134.927 C 233.324 134.605,242.946 135.016,244.054 135.479 M255.137 163.496 C 250.712 164.770,250.356 171.083,254.617 172.710 C 256.025 173.248,256.136 173.243,258.618 172.512 C 259.430 172.272,259.712 173.307,259.296 175.000 C 258.696 177.443,257.207 179.483,254.930 180.980 C 253.088 182.191,252.328 183.346,253.373 183.346 C 254.399 183.346,258.321 181.026,259.733 179.585 C 266.377 172.801,263.066 161.211,255.137 163.496 M278.863 168.579 C 277.023 171.528,274.354 174.512,271.438 176.884 C 268.257 179.470,268.146 179.982,270.743 180.106 L 272.618 180.195 272.768 190.747 L 272.918 201.300 273.827 202.592 C 277.314 207.551,284.673 206.752,287.597 201.098 C 288.477 199.397,287.465 199.273,285.854 200.884 C 284.293 202.445,283.094 202.680,282.107 201.620 C 281.298 200.753,281.115 197.934,281.228 188.147 L 281.320 180.195 284.696 180.110 L 288.072 180.025 288.072 178.545 L 288.072 177.064 284.696 176.979 L 281.320 176.894 281.238 171.718 C 281.141 165.573,280.921 165.283,278.863 168.579 M169.692 176.321 C 165.868 177.232,164.133 178.011,162.359 179.614 C 158.640 182.974,159.464 187.723,163.869 188.327 C 167.731 188.856,169.761 185.640,167.574 182.460 C 165.945 180.092,166.763 178.847,170.106 178.605 C 171.794 178.483,171.933 178.528,173.036 179.537 L 174.194 180.598 174.294 184.065 L 174.395 187.532 172.644 188.303 C 161.842 193.063,157.670 197.793,159.914 202.736 C 161.729 206.733,166.986 206.847,172.209 203.002 C 174.386 201.400,174.535 201.375,174.798 202.568 C 175.367 205.163,178.740 206.502,182.250 205.528 C 183.434 205.199,186.647 202.401,186.647 201.699 C 186.647 201.075,185.754 200.950,185.157 201.491 C 184.442 202.138,183.402 201.853,183.200 200.955 C 183.120 200.595,183.018 196.249,182.974 191.298 C 182.886 181.407,182.855 181.215,180.962 179.060 C 179.015 176.843,173.316 175.457,169.692 176.321 M195.873 176.554 C 192.489 177.816,190.466 180.856,190.456 184.696 C 190.446 188.527,191.863 190.583,197.125 194.367 C 202.666 198.352,203.821 199.770,203.158 201.778 C 201.698 206.202,195.562 203.908,192.672 197.856 C 191.742 195.910,190.612 195.232,190.755 196.707 C 190.787 197.033,190.903 199.291,191.012 201.725 C 191.220 206.368,191.512 207.070,192.662 205.685 C 193.478 204.702,193.993 204.669,196.121 205.464 C 202.385 207.805,207.852 205.428,209.623 199.594 C 211.089 194.762,209.246 191.631,201.822 186.345 C 196.464 182.530,195.669 181.198,197.598 179.269 C 199.874 176.993,203.953 179.271,206.495 184.238 C 207.864 186.913,208.680 186.822,208.438 184.021 C 208.342 182.907,208.177 180.679,208.072 179.070 C 207.863 175.880,207.385 175.283,206.329 176.894 C 205.715 177.832,204.746 177.861,203.064 176.992 C 201.463 176.167,197.554 175.928,195.873 176.554 M231.623 176.558 C 230.088 177.107,228.674 178.033,227.473 179.275 C 226.102 180.694,225.956 180.637,225.956 178.688 L 225.956 177.031 220.205 177.113 C 213.937 177.202,213.258 177.409,215.573 178.529 C 217.505 179.465,217.613 180.231,217.498 192.112 C 217.399 202.302,217.287 203.169,215.979 203.798 C 215.690 203.937,215.218 204.167,214.929 204.309 C 213.134 205.190,214.354 205.401,221.703 205.482 C 229.598 205.569,230.558 205.330,227.712 203.990 C 226.044 203.205,225.956 202.641,225.964 192.828 L 225.971 184.096 226.981 182.721 C 229.167 179.742,232.363 179.565,233.145 182.379 C 233.327 183.035,233.455 187.272,233.456 192.648 C 233.456 202.767,233.384 203.178,231.457 204.102 C 230.994 204.324,230.569 204.743,230.513 205.034 C 230.418 205.528,230.879 205.557,237.687 205.482 C 245.539 205.395,246.460 205.187,243.879 204.080 C 242.112 203.323,242.161 203.575,242.161 195.076 C 242.161 186.593,241.762 181.610,240.957 180.051 C 239.276 176.791,235.219 175.273,231.623 176.558 M111.981 177.545 C 112.034 177.821,112.483 178.269,112.978 178.543 C 114.863 179.583,117.773 186.415,124.263 205.037 C 124.658 206.170,125.790 206.849,126.309 206.265 C 126.437 206.120,127.584 203.098,128.857 199.550 C 130.130 196.002,131.703 191.675,132.352 189.935 C 133.002 188.195,133.533 186.597,133.533 186.384 C 133.533 185.363,134.314 186.466,135.111 188.613 C 135.598 189.924,136.779 193.091,137.736 195.649 C 138.692 198.207,139.917 201.515,140.456 203.001 C 142.387 208.317,143.058 208.093,145.406 201.350 C 152.183 181.890,153.283 179.249,154.928 178.467 C 157.251 177.364,156.446 177.020,151.763 177.111 C 147.437 177.195,146.049 177.667,148.331 178.277 C 150.759 178.927,150.346 182.269,146.758 190.998 C 146.622 191.328,146.344 192.003,146.140 192.498 L 145.768 193.398 144.923 191.148 C 140.412 179.145,140.266 178.245,142.816 178.245 C 143.236 178.245,143.436 178.051,143.436 177.644 C 143.436 177.061,143.236 177.044,136.234 177.044 C 129.316 177.044,129.032 177.067,129.032 177.624 C 129.032 177.965,129.311 178.289,129.707 178.410 C 130.731 178.722,131.422 179.445,132.244 181.067 L 132.991 182.540 132.241 184.518 C 131.437 186.637,130.225 189.988,129.595 191.827 C 129.383 192.449,129.074 192.912,128.909 192.857 C 128.594 192.752,128.412 192.320,126.185 186.371 C 123.462 179.099,123.436 178.903,125.131 178.356 C 125.709 178.170,126.225 177.798,126.279 177.531 C 126.366 177.093,125.651 177.044,119.130 177.044 C 112.524 177.044,111.893 177.089,111.981 177.545 M174.344 194.402 C 174.344 198.269,174.274 198.917,173.818 199.317 C 169.785 202.854,165.801 198.633,169.026 194.239 C 170.380 192.395,173.236 189.992,174.119 189.957 C 174.242 189.952,174.344 191.952,174.344 194.402 M136.315 238.556 C 130.879 239.714,128.224 243.012,127.855 249.062 L 127.682 251.913 125.806 252.002 L 123.931 252.092 123.931 253.563 L 123.931 255.035 125.806 255.124 L 127.682 255.214 127.761 266.354 C 127.850 279.070,127.956 278.527,125.269 279.208 C 124.335 279.445,123.745 279.769,123.684 280.078 C 123.596 280.525,124.375 280.570,132.183 280.570 C 140.151 280.570,140.772 280.532,140.680 280.054 C 140.613 279.709,140.133 279.450,139.232 279.274 C 136.515 278.742,136.569 279.006,136.518 266.107 L 136.475 255.214 138.455 255.125 L 140.435 255.036 140.435 253.550 L 140.435 252.063 138.490 252.063 C 136.080 252.063,136.129 252.194,136.277 246.122 C 136.400 241.072,136.739 240.060,138.305 240.060 C 139.492 240.060,139.924 240.701,139.768 242.230 C 139.359 246.244,145.042 247.828,146.908 244.220 C 148.888 240.391,142.851 237.163,136.315 238.556 M260.465 239.742 C 260.465 240.199,260.748 240.366,261.792 240.522 C 264.345 240.905,264.483 241.278,264.618 248.178 C 264.683 251.470,264.649 254.164,264.542 254.164 C 264.436 254.164,263.669 253.626,262.838 252.970 C 255.295 247.007,245.761 254.734,245.761 266.811 C 245.761 278.769,255.372 285.601,262.799 278.923 C 264.692 277.220,264.666 277.214,264.666 279.370 C 264.666 281.094,264.698 281.170,265.422 281.170 C 266.293 281.170,276.382 279.157,276.599 278.940 C 276.954 278.584,276.312 277.872,275.430 277.643 C 273.126 277.046,273.228 277.946,273.134 257.443 L 273.050 239.160 266.758 239.160 C 260.731 239.160,260.465 239.184,260.465 239.742 M154.923 251.435 C 141.190 254.963,141.862 278.919,155.757 281.203 C 166.504 282.969,174.227 272.929,171.021 261.360 C 168.982 254.000,161.910 249.640,154.923 251.435 M228.007 251.567 C 226.805 252.013,224.342 253.727,223.400 254.773 L 222.806 255.434 222.656 253.824 L 222.506 252.213 216.729 252.132 C 211.250 252.054,210.953 252.079,210.953 252.613 C 210.953 252.992,211.272 253.267,211.928 253.452 C 213.873 254.000,213.952 254.501,213.953 266.251 C 213.954 278.053,213.895 278.445,212.032 279.060 C 211.291 279.305,210.953 279.597,210.953 279.993 C 210.953 280.546,211.250 280.570,218.177 280.570 C 226.037 280.570,226.690 280.397,224.156 278.986 C 222.616 278.129,222.665 278.484,222.660 268.225 L 222.656 258.730 224.025 257.207 C 225.524 255.539,226.912 255.019,228.246 255.627 C 229.727 256.302,229.857 257.252,229.857 267.387 C 229.857 277.774,229.772 278.302,227.971 279.095 C 225.516 280.176,226.592 280.416,234.284 280.500 C 241.311 280.578,241.560 280.561,241.560 279.999 C 241.560 279.597,241.283 279.357,240.664 279.221 C 238.650 278.778,238.560 278.370,238.554 269.652 C 238.546 256.696,238.012 254.214,234.806 252.217 C 233.114 251.163,229.920 250.857,228.007 251.567 M175.844 252.528 C 175.844 252.784,176.294 253.182,176.843 253.411 C 178.726 254.198,178.677 253.921,178.884 264.937 C 178.988 270.482,179.171 275.356,179.289 275.769 C 181.028 281.824,188.213 283.300,193.207 278.629 C 195.032 276.922,195.049 276.925,195.049 278.926 L 195.049 280.583 200.800 280.502 C 207.088 280.413,207.834 280.182,205.453 279.063 C 203.492 278.141,203.451 277.827,203.451 263.933 L 203.451 252.063 197.749 252.063 C 192.396 252.063,192.048 252.097,192.048 252.620 C 192.048 252.991,192.372 253.268,193.023 253.452 C 194.926 253.988,195.048 254.667,195.046 264.666 L 195.045 273.518 193.790 274.983 C 191.726 277.391,189.845 277.865,188.417 276.337 L 187.547 275.405 187.547 263.734 L 187.547 252.063 181.695 252.063 C 176.609 252.063,175.844 252.124,175.844 252.528 M159.782 253.691 C 161.880 254.567,162.635 257.558,162.638 265.009 C 162.644 275.758,161.664 279.079,158.477 279.123 C 155.001 279.171,153.972 276.417,153.950 267.013 C 153.925 255.578,155.529 251.914,159.782 253.691 M260.850 254.572 C 261.948 255.036,263.292 256.291,264.108 257.614 C 264.610 258.428,264.664 259.242,264.665 266.047 L 264.666 273.578 263.807 274.749 C 258.872 281.467,254.914 277.380,254.914 265.566 C 254.914 256.150,256.711 252.822,260.850 254.572 " stroke="none" fill="#333333" fill-rule="evenodd"></path><path id="path1" d="M0.000 150.038 L 0.000 300.075 200.000 300.075 L 400.000 300.075 400.000 150.038 L 400.000 0.000 200.000 0.000 L 0.000 0.000 0.000 150.038 M91.597 14.789 C 102.689 17.750,103.782 32.040,93.173 35.401 C 92.513 35.610,91.860 35.884,91.723 36.010 C 90.991 36.680,104.330 54.014,105.577 54.014 C 106.202 54.014,106.827 54.571,106.827 55.130 C 106.827 55.448,105.548 55.510,100.316 55.445 L 93.805 55.364 87.138 46.062 L 80.471 36.759 79.200 36.665 C 77.449 36.535,77.428 36.607,77.430 42.761 C 77.432 52.428,77.922 53.769,81.607 54.186 C 83.106 54.355,83.421 54.489,83.421 54.952 C 83.421 55.490,82.975 55.514,72.746 55.514 C 62.747 55.514,62.078 55.481,62.173 54.990 C 62.249 54.594,62.706 54.411,64.040 54.245 C 68.259 53.717,68.117 54.391,68.117 34.891 C 68.117 15.695,68.152 15.899,64.816 15.452 C 62.509 15.143,62.116 15.007,62.116 14.522 C 62.116 13.837,88.941 14.080,91.597 14.789 M333.983 32.437 C 333.983 53.115,333.881 52.202,336.246 52.646 C 337.178 52.821,337.899 53.499,337.536 53.861 C 337.469 53.929,334.786 54.511,331.573 55.156 L 325.731 56.328 325.649 54.646 C 325.517 51.969,325.440 51.929,323.695 53.628 C 320.667 56.574,316.891 57.194,313.173 55.355 C 303.782 50.710,304.261 31.514,313.878 27.043 C 317.397 25.407,321.996 26.099,324.350 28.619 C 325.429 29.775,325.582 29.393,325.576 25.564 C 325.564 17.558,325.152 16.115,322.701 15.490 C 321.760 15.250,321.196 14.933,321.134 14.609 C 321.045 14.148,321.601 14.104,327.510 14.104 L 333.983 14.104 333.983 32.437 M77.555 16.883 C 77.475 17.092,77.446 21.042,77.490 25.660 L 77.569 34.059 81.020 34.035 C 88.045 33.986,90.173 31.969,90.173 25.356 C 90.173 20.344,89.103 18.418,85.585 17.099 C 83.670 16.381,77.808 16.224,77.555 16.883 M269.099 21.834 L 269.181 27.007 272.475 27.007 L 275.769 27.007 275.769 28.507 L 275.769 30.008 272.457 30.008 L 269.145 30.008 269.231 40.479 C 269.312 50.288,269.354 50.990,269.889 51.582 C 270.850 52.644,272.053 52.407,273.610 50.850 C 275.706 48.754,276.463 49.439,274.864 51.985 C 271.066 58.034,261.868 56.714,260.763 49.962 C 260.601 48.972,260.468 44.077,260.467 39.085 L 260.465 30.008 258.682 30.008 C 255.880 30.008,255.918 29.415,258.864 27.157 C 261.531 25.113,264.646 21.735,266.511 18.864 C 268.825 15.303,268.999 15.502,269.099 21.834 M125.986 27.160 C 129.676 29.170,132.142 33.551,132.404 38.560 L 132.483 40.060 124.745 40.140 C 115.940 40.231,116.476 40.040,116.982 42.912 C 118.474 51.377,125.873 54.486,130.280 48.498 C 131.325 47.078,131.686 46.885,132.248 47.447 C 132.815 48.013,130.345 51.862,128.215 53.732 C 123.537 57.839,115.133 56.952,111.469 51.963 C 108.086 47.355,107.618 38.516,110.462 32.940 C 113.379 27.224,120.937 24.409,125.986 27.160 M153.903 26.602 C 154.746 26.874,155.965 27.549,156.611 28.102 C 158.103 29.380,158.045 29.387,160.540 27.607 C 163.852 25.244,163.541 23.512,163.543 44.336 C 163.546 66.836,163.603 67.299,166.392 67.577 C 167.065 67.644,167.316 67.838,167.388 68.347 L 167.485 69.027 159.290 68.947 C 151.936 68.875,151.086 68.816,151.000 68.370 C 150.932 68.015,151.190 67.816,151.896 67.676 C 153.632 67.332,154.451 66.897,154.800 66.132 C 155.154 65.355,155.302 53.113,154.957 53.113 C 154.857 53.113,154.365 53.458,153.864 53.880 C 147.847 58.943,139.857 56.166,137.076 48.045 C 132.973 36.063,143.129 23.122,153.903 26.602 M222.923 26.981 C 226.857 29.016,229.317 33.268,229.621 38.560 L 229.707 40.060 221.969 40.140 C 213.127 40.232,213.652 40.037,214.259 43.001 C 215.980 51.408,222.824 54.406,227.290 48.709 C 228.910 46.642,230.302 46.749,229.227 48.857 C 223.584 59.925,209.134 58.514,206.293 46.618 C 205.337 42.616,205.836 37.013,207.466 33.453 C 210.141 27.609,217.877 24.370,222.923 26.981 M246.575 26.955 C 248.203 27.795,248.798 27.777,249.662 26.857 C 251.256 25.161,251.763 27.056,251.763 34.706 C 251.763 36.484,250.922 36.513,250.163 34.759 C 247.887 29.507,243.083 26.761,240.837 29.430 C 239.222 31.350,240.364 32.985,246.119 36.991 C 251.988 41.075,253.115 42.708,253.109 47.112 C 253.100 54.434,247.110 58.100,239.536 55.420 L 237.362 54.650 236.465 55.405 C 234.710 56.882,234.532 56.532,234.312 51.159 C 234.204 48.521,234.178 46.260,234.255 46.137 C 234.655 45.489,235.312 46.128,236.179 48.009 C 238.683 53.442,244.408 55.863,246.318 52.295 C 247.425 50.226,246.413 48.715,241.472 45.057 C 234.964 40.239,233.904 38.779,233.915 34.659 C 233.934 28.066,240.722 23.935,246.575 26.955 M296.126 27.159 C 299.735 29.125,302.056 33.096,302.396 37.884 L 302.561 40.210 294.857 40.210 C 286.053 40.210,286.579 40.021,287.159 42.969 C 288.818 51.401,295.728 54.438,300.208 48.705 C 302.457 45.827,303.243 47.227,301.148 50.379 C 295.168 59.374,283.232 58.144,279.625 48.162 C 278.839 45.986,278.523 40.149,279.040 37.370 C 280.610 28.936,289.565 23.584,296.126 27.159 M182.211 38.485 C 182.359 50.923,182.406 51.275,184.000 51.936 C 185.419 52.523,186.963 51.883,188.591 50.031 L 189.971 48.462 189.884 39.296 C 189.788 29.149,189.718 28.768,187.857 28.359 C 187.229 28.221,186.947 27.981,186.947 27.583 C 186.947 27.035,187.225 27.007,192.619 27.007 L 198.290 27.007 198.416 39.685 C 198.555 53.680,198.495 53.240,200.368 54.043 C 202.831 55.099,201.973 55.356,195.699 55.445 L 189.947 55.527 189.947 53.870 C 189.947 51.877,189.958 51.879,188.125 53.526 C 183.281 57.882,176.775 57.041,174.477 51.763 C 174.027 50.729,173.930 49.124,173.774 40.181 C 173.577 28.834,173.630 29.144,171.742 28.355 C 169.281 27.327,170.389 27.007,176.408 27.007 L 182.074 27.007 182.211 38.485 M120.030 28.420 C 118.149 29.111,116.053 34.291,116.471 37.209 L 116.579 37.959 120.744 38.043 L 124.909 38.127 124.775 34.882 C 124.570 29.893,122.753 27.419,120.030 28.420 M149.143 28.733 C 143.767 31.434,143.911 51.674,149.313 52.688 C 150.709 52.950,152.665 52.186,154.055 50.836 L 155.139 49.784 155.139 41.679 C 155.139 31.470,154.784 29.862,152.270 28.669 C 151.020 28.076,150.427 28.088,149.143 28.733 M216.963 28.576 C 215.227 29.489,213.865 32.967,214.015 36.103 L 214.104 37.959 218.155 37.959 L 222.206 37.959 222.098 35.118 C 221.899 29.870,219.738 27.117,216.963 28.576 M290.173 28.406 C 288.384 29.118,286.572 33.329,286.572 36.772 C 286.572 38.082,286.869 38.159,291.516 38.046 L 295.110 37.959 295.027 35.409 C 294.857 30.261,292.836 27.345,290.173 28.406 M317.966 29.850 C 316.044 31.631,315.829 32.724,315.829 40.689 C 315.829 45.543,315.939 48.058,316.163 48.341 C 316.346 48.573,316.578 49.100,316.678 49.512 C 317.634 53.472,322.116 53.510,324.638 49.580 L 325.581 48.109 325.581 40.910 L 325.581 33.711 324.449 32.090 C 322.484 29.277,319.643 28.296,317.966 29.850 M131.969 89.077 C 135.752 91.771,133.834 97.520,129.152 97.523 C 123.838 97.527,122.785 90.245,127.832 88.402 C 128.763 88.062,131.073 88.439,131.969 89.077 M164.147 102.048 C 165.341 102.708,167.182 104.698,167.512 105.685 C 167.596 105.937,168.264 105.509,169.384 104.485 C 174.947 99.403,182.045 100.099,184.068 105.926 C 184.450 107.024,184.539 108.849,184.544 115.679 C 184.553 126.409,184.963 129.032,186.633 129.032 C 187.225 129.032,187.847 129.602,187.847 130.143 C 187.847 130.452,186.327 130.533,180.495 130.533 C 173.604 130.533,173.143 130.499,173.143 129.990 C 173.143 129.648,173.576 129.257,174.318 128.930 C 176.081 128.152,176.144 127.748,176.144 117.275 C 176.144 107.221,176.012 106.264,174.532 105.589 C 172.922 104.856,170.005 106.272,168.668 108.436 C 166.900 111.296,168.043 128.616,170.024 128.990 C 170.783 129.133,171.343 129.612,171.343 130.119 C 171.343 130.459,170.035 130.533,163.991 130.533 C 157.100 130.533,156.639 130.499,156.639 129.990 C 156.639 129.646,157.076 129.255,157.833 128.921 C 159.626 128.130,159.700 127.624,159.587 116.865 C 159.500 108.494,159.435 107.465,158.949 106.724 C 157.615 104.691,155.439 104.904,153.113 107.295 L 151.538 108.914 151.538 117.783 C 151.538 127.869,151.632 128.420,153.459 129.023 C 154.201 129.267,154.539 129.560,154.539 129.956 C 154.539 130.509,154.240 130.533,147.187 130.533 C 141.355 130.533,139.835 130.452,139.835 130.143 C 139.835 129.593,140.461 129.032,141.073 129.032 C 142.742 129.032,142.836 128.361,142.836 116.408 C 142.836 104.227,142.822 104.126,141.059 103.420 C 138.341 102.333,139.362 102.026,145.686 102.026 L 151.538 102.026 151.538 103.676 C 151.538 105.651,151.669 105.685,153.202 104.101 C 156.066 101.141,160.877 100.239,164.147 102.048 M211.348 102.183 C 215.575 104.265,215.884 105.206,215.982 116.279 C 216.026 121.230,216.128 125.576,216.209 125.936 C 216.410 126.834,217.450 127.119,218.165 126.472 C 218.762 125.932,219.655 126.056,219.655 126.680 C 219.655 127.447,216.428 130.189,215.104 130.548 C 211.914 131.411,209.123 130.407,207.986 127.987 C 207.218 126.354,207.382 126.366,205.463 127.799 C 199.201 132.477,193.061 131.548,192.416 125.826 C 191.925 121.474,196.142 117.475,205.626 113.296 L 207.352 112.536 207.352 109.196 L 207.352 105.856 206.151 104.655 C 204.971 103.475,204.918 103.456,203.146 103.584 C 199.841 103.823,198.925 105.108,200.497 107.297 C 202.829 110.544,200.672 113.890,196.637 113.285 C 192.454 112.657,191.753 107.860,195.367 104.595 C 197.142 102.992,198.877 102.213,202.701 101.302 C 204.677 100.831,209.629 101.336,211.348 102.183 M239.460 101.747 C 239.994 102.049,241.723 102.216,245.461 102.324 L 250.713 102.476 250.803 104.051 L 250.894 105.626 248.328 105.626 C 245.463 105.626,245.462 105.627,246.523 107.019 C 251.660 113.753,245.311 121.830,234.881 121.830 C 231.074 121.830,229.857 122.501,229.857 124.602 C 229.857 126.919,230.646 127.166,238.560 127.320 C 248.159 127.507,251.299 129.572,250.779 135.356 C 250.173 142.115,239.687 146.001,229.257 143.331 C 222.477 141.595,220.788 137.158,225.972 134.697 C 227.712 133.871,227.730 133.824,226.571 133.140 C 222.360 130.652,223.776 124.455,229.182 121.710 C 230.288 121.149,230.419 120.754,229.587 120.490 C 221.120 117.802,221.005 106.135,229.408 102.307 C 232.183 101.043,237.677 100.737,239.460 101.747 M271.535 102.000 C 275.406 104.002,277.902 108.271,278.218 113.428 L 278.320 115.079 270.443 115.159 L 262.566 115.239 262.570 116.059 C 262.619 125.189,271.349 129.995,276.116 123.517 C 277.833 121.184,278.778 121.979,277.371 124.572 C 274.321 130.195,268.172 132.729,262.416 130.737 C 252.518 127.311,251.407 109.561,260.687 103.130 C 263.744 101.012,268.640 100.502,271.535 102.000 M133.599 114.918 C 133.693 129.332,133.568 128.543,135.865 129.188 C 136.506 129.368,136.984 129.690,136.984 129.942 C 136.984 130.316,135.814 130.395,129.257 130.463 C 121.991 130.538,121.530 130.511,121.530 130.003 C 121.530 129.639,121.941 129.321,122.798 129.023 C 124.867 128.304,124.843 128.461,124.757 115.914 C 124.673 103.526,124.763 104.066,122.646 103.349 C 122.115 103.170,121.637 102.798,121.583 102.524 C 121.496 102.073,122.056 102.026,127.501 102.026 L 133.515 102.026 133.599 114.918 M234.471 103.522 C 231.078 104.892,230.719 117.052,234.002 119.390 C 238.288 122.441,241.315 115.448,239.438 106.832 C 238.812 103.958,236.766 102.595,234.471 103.522 M265.683 103.520 C 264.066 104.173,262.676 107.344,262.519 110.737 L 262.416 112.978 266.317 113.053 C 271.366 113.151,271.170 113.309,270.724 109.513 C 270.140 104.536,268.372 102.433,265.683 103.520 M206.302 115.288 C 204.986 116.036,203.088 117.784,202.034 119.221 C 198.851 123.557,202.894 127.872,206.816 124.323 C 207.374 123.818,207.669 114.916,207.127 114.938 C 207.003 114.943,206.632 115.100,206.302 115.288 M231.145 134.927 C 228.487 135.321,227.518 138.075,229.381 139.939 C 233.506 144.063,248.500 141.051,245.633 136.674 C 244.679 135.219,236.136 134.189,231.145 134.927 M259.427 163.805 C 266.121 166.845,264.001 178.248,255.999 182.240 C 252.316 184.077,251.565 183.192,254.930 180.980 C 257.207 179.483,258.696 177.443,259.296 175.000 C 259.712 173.307,259.430 172.272,258.618 172.512 C 256.136 173.243,256.025 173.248,254.617 172.710 C 253.540 172.299,252.997 171.844,252.334 170.798 C 249.584 166.462,254.534 161.582,259.427 163.805 M281.238 171.718 L 281.320 176.894 284.696 176.979 L 288.072 177.064 288.072 178.545 L 288.072 180.025 284.696 180.110 L 281.320 180.195 281.228 188.147 C 281.115 197.934,281.298 200.753,282.107 201.620 C 283.094 202.680,284.293 202.445,285.854 200.884 C 287.465 199.273,288.477 199.397,287.597 201.098 C 284.673 206.752,277.314 207.551,273.827 202.592 L 272.918 201.300 272.768 190.747 L 272.618 180.195 270.743 180.106 C 268.146 179.982,268.257 179.470,271.438 176.884 C 274.354 174.512,277.023 171.528,278.863 168.579 C 280.921 165.283,281.141 165.573,281.238 171.718 M178.299 177.156 C 182.520 179.168,182.876 180.244,182.974 191.298 C 183.018 196.249,183.120 200.595,183.200 200.955 C 183.402 201.853,184.442 202.138,185.157 201.491 C 185.754 200.950,186.647 201.075,186.647 201.699 C 186.647 202.401,183.434 205.199,182.250 205.528 C 178.740 206.502,175.367 205.163,174.798 202.568 C 174.535 201.375,174.386 201.400,172.209 203.002 C 166.986 206.847,161.729 206.733,159.914 202.736 C 157.670 197.793,161.842 193.063,172.644 188.303 L 174.395 187.532 174.294 184.065 L 174.194 180.598 173.036 179.537 C 171.933 178.528,171.794 178.483,170.106 178.605 C 166.763 178.847,165.945 180.092,167.574 182.460 C 169.761 185.640,167.731 188.856,163.869 188.327 C 159.464 187.723,158.640 182.974,162.359 179.614 C 164.133 178.011,165.868 177.232,169.692 176.321 C 171.592 175.868,176.622 176.356,178.299 177.156 M203.064 176.992 C 204.746 177.861,205.715 177.832,206.329 176.894 C 207.385 175.283,207.863 175.880,208.072 179.070 C 208.177 180.679,208.342 182.907,208.438 184.021 C 208.680 186.822,207.864 186.913,206.495 184.238 C 203.953 179.271,199.874 176.993,197.598 179.269 C 195.669 181.198,196.464 182.530,201.822 186.345 C 209.246 191.631,211.089 194.762,209.623 199.594 C 207.852 205.428,202.385 207.805,196.121 205.464 C 193.993 204.669,193.478 204.702,192.662 205.685 C 191.512 207.070,191.220 206.368,191.012 201.725 C 190.903 199.291,190.787 197.033,190.755 196.707 C 190.612 195.232,191.742 195.910,192.672 197.856 C 195.562 203.908,201.698 206.202,203.158 201.778 C 203.821 199.770,202.666 198.352,197.125 194.367 C 191.863 190.583,190.446 188.527,190.456 184.696 C 190.473 178.152,197.267 174.001,203.064 176.992 M237.294 176.609 C 241.392 178.319,242.161 181.234,242.161 195.076 C 242.161 203.575,242.112 203.323,243.879 204.080 C 246.460 205.187,245.539 205.395,237.687 205.482 C 230.879 205.557,230.418 205.528,230.513 205.034 C 230.569 204.743,230.994 204.324,231.457 204.102 C 233.384 203.178,233.456 202.767,233.456 192.648 C 233.455 187.272,233.327 183.035,233.145 182.379 C 232.363 179.565,229.167 179.742,226.981 182.721 L 225.971 184.096 225.964 192.828 C 225.956 202.641,226.044 203.205,227.712 203.990 C 230.558 205.330,229.598 205.569,221.703 205.482 C 214.354 205.401,213.134 205.190,214.929 204.309 C 215.218 204.167,215.690 203.937,215.979 203.798 C 217.287 203.169,217.399 202.302,217.498 192.112 C 217.613 180.231,217.505 179.465,215.573 178.529 C 213.258 177.409,213.937 177.202,220.205 177.113 L 225.956 177.031 225.956 178.688 C 225.956 180.637,226.102 180.694,227.473 179.275 C 230.175 176.480,234.299 175.360,237.294 176.609 M126.279 177.531 C 126.225 177.798,125.709 178.170,125.131 178.356 C 123.436 178.903,123.462 179.099,126.185 186.371 C 128.412 192.320,128.594 192.752,128.909 192.857 C 129.074 192.912,129.383 192.449,129.595 191.827 C 130.225 189.988,131.437 186.637,132.241 184.518 L 132.991 182.540 132.244 181.067 C 131.422 179.445,130.731 178.722,129.707 178.410 C 129.311 178.289,129.032 177.965,129.032 177.624 C 129.032 177.067,129.316 177.044,136.234 177.044 C 143.236 177.044,143.436 177.061,143.436 177.644 C 143.436 178.051,143.236 178.245,142.816 178.245 C 140.266 178.245,140.412 179.145,144.923 191.148 L 145.768 193.398 146.140 192.498 C 146.344 192.003,146.622 191.328,146.758 190.998 C 150.346 182.269,150.759 178.927,148.331 178.277 C 146.049 177.667,147.437 177.195,151.763 177.111 C 156.446 177.020,157.251 177.364,154.928 178.467 C 153.283 179.249,152.183 181.890,145.406 201.350 C 143.058 208.093,142.387 208.317,140.456 203.001 C 139.917 201.515,138.692 198.207,137.736 195.649 C 136.779 193.091,135.598 189.924,135.111 188.613 C 134.314 186.466,133.533 185.363,133.533 186.384 C 133.533 186.597,133.002 188.195,132.352 189.935 C 131.703 191.675,130.130 196.002,128.857 199.550 C 127.584 203.098,126.437 206.120,126.309 206.265 C 125.790 206.849,124.658 206.170,124.263 205.037 C 117.773 186.415,114.863 179.583,112.978 178.543 C 110.594 177.227,111.345 177.044,119.130 177.044 C 125.651 177.044,126.366 177.093,126.279 177.531 M173.293 190.307 C 171.978 191.054,170.080 192.803,169.026 194.239 C 165.801 198.633,169.785 202.854,173.818 199.317 C 174.367 198.836,174.653 189.935,174.119 189.957 C 173.995 189.962,173.623 190.119,173.293 190.307 M144.512 239.100 C 148.768 241.282,147.917 246.062,143.272 246.062 C 140.676 246.062,139.508 244.783,139.768 242.230 C 139.924 240.701,139.492 240.060,138.305 240.060 C 136.739 240.060,136.400 241.072,136.277 246.122 C 136.129 252.194,136.080 252.063,138.490 252.063 L 140.435 252.063 140.435 253.550 L 140.435 255.036 138.455 255.125 L 136.475 255.214 136.518 266.107 C 136.569 279.006,136.515 278.742,139.232 279.274 C 140.133 279.450,140.613 279.709,140.680 280.054 C 140.772 280.532,140.151 280.570,132.183 280.570 C 124.375 280.570,123.596 280.525,123.684 280.078 C 123.745 279.769,124.335 279.445,125.269 279.208 C 127.956 278.527,127.850 279.070,127.761 266.354 L 127.682 255.214 125.806 255.124 L 123.931 255.035 123.931 253.563 L 123.931 252.092 125.806 252.002 L 127.682 251.913 127.855 249.062 C 128.169 243.913,129.870 241.116,133.728 239.409 C 136.683 238.102,142.255 237.942,144.512 239.100 M273.134 257.443 C 273.228 277.946,273.126 277.046,275.430 277.643 C 276.312 277.872,276.954 278.584,276.599 278.940 C 276.382 279.157,266.293 281.170,265.422 281.170 C 264.698 281.170,264.666 281.094,264.666 279.370 C 264.666 277.214,264.692 277.220,262.799 278.923 C 260.576 280.922,259.541 281.324,256.714 281.285 C 248.875 281.179,244.299 272.995,246.092 262.290 C 247.619 253.178,256.704 248.121,262.838 252.970 C 263.669 253.626,264.436 254.164,264.542 254.164 C 264.649 254.164,264.683 251.470,264.618 248.178 C 264.483 241.278,264.345 240.905,261.792 240.522 C 260.748 240.366,260.465 240.199,260.465 239.742 C 260.465 239.184,260.731 239.160,266.758 239.160 L 273.050 239.160 273.134 257.443 M163.899 252.459 C 176.401 258.473,173.315 280.028,159.766 281.322 C 151.369 282.124,145.428 276.460,145.001 267.245 C 144.452 255.421,154.200 247.794,163.899 252.459 M234.806 252.217 C 238.012 254.214,238.546 256.696,238.554 269.652 C 238.560 278.370,238.650 278.778,240.664 279.221 C 241.283 279.357,241.560 279.597,241.560 279.999 C 241.560 280.561,241.311 280.578,234.284 280.500 C 226.592 280.416,225.516 280.176,227.971 279.095 C 229.772 278.302,229.857 277.774,229.857 267.387 C 229.857 257.252,229.727 256.302,228.246 255.627 C 226.912 255.019,225.524 255.539,224.025 257.207 L 222.656 258.730 222.660 268.225 C 222.665 278.484,222.616 278.129,224.156 278.986 C 226.690 280.397,226.037 280.570,218.177 280.570 C 211.250 280.570,210.953 280.546,210.953 279.993 C 210.953 279.597,211.291 279.305,212.032 279.060 C 213.895 278.445,213.954 278.053,213.953 266.251 C 213.952 254.501,213.873 254.000,211.928 253.452 C 211.272 253.267,210.953 252.992,210.953 252.613 C 210.953 252.079,211.250 252.054,216.729 252.132 L 222.506 252.213 222.656 253.824 L 222.806 255.434 223.400 254.773 C 226.572 251.250,231.486 250.148,234.806 252.217 M187.547 263.734 L 187.547 275.405 188.417 276.337 C 189.845 277.865,191.726 277.391,193.790 274.983 L 195.045 273.518 195.046 264.666 C 195.048 254.667,194.926 253.988,193.023 253.452 C 192.372 253.268,192.048 252.991,192.048 252.620 C 192.048 252.097,192.396 252.063,197.749 252.063 L 203.451 252.063 203.451 263.933 C 203.451 277.827,203.492 278.141,205.453 279.063 C 207.834 280.182,207.088 280.413,200.800 280.502 L 195.049 280.583 195.049 278.926 C 195.049 276.925,195.032 276.922,193.207 278.629 C 188.213 283.300,181.028 281.824,179.289 275.769 C 179.171 275.356,178.988 270.482,178.884 264.937 C 178.677 253.921,178.726 254.198,176.843 253.411 C 174.362 252.375,175.483 252.063,181.695 252.063 L 187.547 252.063 187.547 263.734 M157.089 253.550 C 154.725 254.527,153.930 257.939,153.950 267.013 C 153.972 276.417,155.001 279.171,158.477 279.123 C 161.664 279.079,162.644 275.758,162.638 265.009 C 162.634 255.582,160.889 251.978,157.089 253.550 M257.050 255.159 C 253.941 258.468,253.944 272.701,257.055 276.335 C 259.025 278.637,261.352 278.091,263.807 274.749 L 264.666 273.578 264.665 266.047 C 264.664 259.242,264.610 258.428,264.108 257.614 C 262.075 254.319,258.882 253.209,257.050 255.159 " stroke="none" fill="#fdfdfd" fill-rule="evenodd"></path></g></svg>